<svg clip-rule="evenodd" fill-rule="evenodd" stroke-linejoin="round" stroke-miterlimit="2" viewBox="0 0 512 512" xmlns="http://www.w3.org/2000/svg"><g transform="matrix(.930909 0 0 .930909 -173.869 -112.647)"><path d="m253.691 292.155h423.398v329.772h-423.398z" fill="#fff"/><g fill="#f9423a"><path d="m537.916 171.008h-156.475v-20c0-16.557-13.443-30-30-30-16.558 0-30 13.443-30 30v20.933c-61.764 7.564-109.668 60.266-109.668 124.067v250c0 68.989 56.011 125 125 125h250c68.99 0 125-56.011 125-125v-250c0-65.236-50.082-118.868-113.857-124.509v-20.491c0-16.557-13.443-30-30-30-16.558 0-30 13.443-30 30zm-278.238 370.849c0 43.684 35.467 79.151 79.152 79.151h241.697c43.685 0 79.151-35.467 79.151-79.151v-220.844h-400z"/><path d="m384 192c0-53.333-18.667-98.667-56-136s-82.667-56-136-56-98.667 18.667-136 56-56 82.667-56 136 18.667 98.667 56 136 82.667 56 136 56 98.667-18.667 136-56 56-82.667 56-136zm512-123c1.333-18.667-4.333-34.667-17-48-12-14-27.667-21-47-21h-135c-16.667 0-31 5.5-43 16.5s-18.667 24.833-20 41.5c-14.667 152.667-76.167 283.167-184.5 391.5s-238.833 169.833-391.5 184.5c-16.667 1.333-30.5 8-41.5 20s-16.5 26.333-16.5 43v135c0 19.333 7 35 21 47 11.333 11.333 25.667 17 43 17h5c106.667-8.667 208.667-35.5 306-80.5s183.667-105.5 259-181.5c76-75.333 136.5-161.667 181.5-259s71.833-199.333 80.5-306zm512-2c1.33-18-4.67-33.667-18-47-12-13.333-27.33-20-46-20h-143c-17.33 0-32.17 5.833-44.5 17.5s-18.83 25.833-19.5 42.5c-8 143.333-41.67 279.5-101 408.5-59.333 129-136.5 241-231.5 336s-207 172.167-336 231.5c-129 59.33-265.167 93.33-408.5 102-16.667.67-30.833 7.17-42.5 19.5s-17.5 26.83-17.5 43.5v143c0 18.67 6.667 34 20 46 12 12 26.667 18 44 18h3c174.667-8.67 341.833-48.67 501.5-120s301.5-169.33 425.5-294c124.67-124 222.67-265.833 294-425.5s111.33-326.833 120-501.5z" fill-rule="nonzero" transform="matrix(.146465 0 0 -.146465 358.648 570.895)"/></g></g></svg>